HIERARCHY
ROOT Hips
{
	OFFSET 8.91173 92.52490 -21.95620
	CHANNELS 6 Xposition Yposition Zposition Zrotation Xrotation Yrotation
	JOINT Spine
	{
		OFFSET 0.00000 14.09320 -1.51142
		CHANNELS 3 Zrotation Xrotation Yrotation
		JOINT Spine1
		{
			OFFSET 0.00000 8.69660 0.00000
			CHANNELS 3 Zrotation Xrotation Yrotation
			JOINT Spine2
			{
				OFFSET 0.00000 8.69660 0.00000
				CHANNELS 3 Zrotation Xrotation Yrotation
				JOINT Spine3
				{
					OFFSET 0.00000 8.69660 0.00000
					CHANNELS 3 Zrotation Xrotation Yrotation
					JOINT Neck
					{
						OFFSET 0.00000 11.18130 1.11813
						CHANNELS 3 Zrotation Xrotation Yrotation
						JOINT Neck1
						{
							OFFSET 0.00000 5.70631 0.00000
							CHANNELS 3 Zrotation Xrotation Yrotation
							JOINT Head
							{
								OFFSET 0.00000 5.70631 0.00000
								CHANNELS 3 Zrotation Xrotation Yrotation
								End site
								{
									OFFSET 0.00000 9.71257 0.00000
								}
							}
						}
					}
					JOINT RightShoulder
					{
						OFFSET 0.00000 7.98668 5.19711
						CHANNELS 3 Zrotation Xrotation Yrotation
						JOINT RightArm
						{
							OFFSET 0.00000 18.31580 0.00000
							CHANNELS 3 Zrotation Xrotation Yrotation
							JOINT RightForeArm
							{
								OFFSET 0.00000 28.87420 0.00000
								CHANNELS 3 Zrotation Xrotation Yrotation
								JOINT RightHand
								{
									OFFSET 0.00000 23.87720 0.00000
									CHANNELS 3 Zrotation Xrotation Yrotation
									JOINT RightHandThumb1
									{
										OFFSET -2.41094 4.67063 3.47303
										CHANNELS 3 Zrotation Xrotation Yrotation
										JOINT RightHandThumb2
										{
											OFFSET 0.00000 3.95207 0.00000
											CHANNELS 3 Zrotation Xrotation Yrotation
											JOINT RightHandThumb3
											{
												OFFSET 0.00000 2.15568 0.00000
												CHANNELS 3 Zrotation Xrotation Yrotation
												End site
												{
													OFFSET 0.00000 1.91616 0.00000
												}
											}
										}
									}
									JOINT RightHandIndex1
									{
										OFFSET 0.00000 12.45500 2.51496
										CHANNELS 3 Zrotation Xrotation Yrotation
										JOINT RightHandIndex2
										{
											OFFSET 0.00000 4.79039 0.00000
											CHANNELS 3 Zrotation Xrotation Yrotation
											JOINT RightHandIndex3
											{
												OFFSET 0.00000 2.63472 0.00000
												CHANNELS 3 Zrotation Xrotation Yrotation
												End site
												{
													OFFSET 0.00000 1.91616 0.00000
												}
											}
										}
									}
									JOINT RightHandMiddle1
									{
										OFFSET 0.00000 12.45500 -0.07984
										CHANNELS 3 Zrotation Xrotation Yrotation
										JOINT RightHandMiddle2
										{
											OFFSET 0.00000 5.38919 0.00000
											CHANNELS 3 Zrotation Xrotation Yrotation
											JOINT RightHandMiddle3
											{
												OFFSET 0.00000 3.11376 0.00000
												CHANNELS 3 Zrotation Xrotation Yrotation
												End site
												{
													OFFSET 0.00000 2.03592 0.00000
												}
											}
										}
									}
									JOINT RightHandRing1
									{
										OFFSET 0.00000 11.07780 -2.67464
										CHANNELS 3 Zrotation Xrotation Yrotation
										JOINT RightHandRing2
										{
											OFFSET 0.00000 4.91015 0.00000
											CHANNELS 3 Zrotation Xrotation Yrotation
											JOINT RightHandRing3
											{
												OFFSET 0.00000 3.11376 0.00000
												CHANNELS 3 Zrotation Xrotation Yrotation
												End site
												{
													OFFSET 0.00000 2.03592 0.00000
												}
											}
										}
									}
									JOINT RightHandPinky1
									{
										OFFSET 0.00000 9.70055 -5.26943
										CHANNELS 3 Zrotation Xrotation Yrotation
										JOINT RightHandPinky2
										{
											OFFSET 0.00000 3.95207 0.00000
											CHANNELS 3 Zrotation Xrotation Yrotation
											JOINT RightHandPinky3
											{
												OFFSET 0.00000 2.15568 0.00000
												CHANNELS 3 Zrotation Xrotation Yrotation
												End site
												{
													OFFSET 0.00000 1.91616 0.00000
												}
											}
										}
									}
								}
							}
						}
					}
					JOINT LeftShoulder
					{
						OFFSET 0.00000 7.98668 5.19711
						CHANNELS 3 Zrotation Xrotation Yrotation
						JOINT LeftArm
						{
							OFFSET 0.00000 18.31580 0.00000
							CHANNELS 3 Zrotation Xrotation Yrotation
							JOINT LeftForeArm
							{
								OFFSET 0.00000 28.87420 0.00000
								CHANNELS 3 Zrotation Xrotation Yrotation
								JOINT LeftHand
								{
									OFFSET 0.00000 23.87720 0.00000
									CHANNELS 3 Zrotation Xrotation Yrotation
									JOINT LeftHandThumb1
									{
										OFFSET 2.41094 4.67063 3.47303
										CHANNELS 3 Zrotation Xrotation Yrotation
										JOINT LeftHandThumb2
										{
											OFFSET 0.00000 3.95207 0.00000
											CHANNELS 3 Zrotation Xrotation Yrotation
											JOINT LeftHandThumb3
											{
												OFFSET 0.00000 2.15568 0.00000
												CHANNELS 3 Zrotation Xrotation Yrotation
												End site
												{
													OFFSET 0.00000 1.60000 0.00000
												}
											}
										}
									}
									JOINT LeftHandIndex1
									{
										OFFSET 0.00000 12.45500 2.51496
										CHANNELS 3 Zrotation Xrotation Yrotation
										JOINT LeftHandIndex2
										{
											OFFSET 0.00000 4.79039 0.00000
											CHANNELS 3 Zrotation Xrotation Yrotation
											JOINT LeftHandIndex3
											{
												OFFSET 0.00000 2.63472 0.00000
												CHANNELS 3 Zrotation Xrotation Yrotation
												End site
												{
													OFFSET 0.00000 1.91616 0.00000
												}
											}
										}
									}
									JOINT LeftHandMiddle1
									{
										OFFSET 0.00000 12.45500 -0.07984
										CHANNELS 3 Zrotation Xrotation Yrotation
										JOINT LeftHandMiddle2
										{
											OFFSET 0.00000 5.38919 0.00000
											CHANNELS 3 Zrotation Xrotation Yrotation
											JOINT LeftHandMiddle3
											{
												OFFSET 0.00000 3.11376 0.00000
												CHANNELS 3 Zrotation Xrotation Yrotation
												End site
												{
													OFFSET 0.00000 2.03592 0.00000
												}
											}
										}
									}
									JOINT LeftHandRing1
									{
										OFFSET 0.00000 11.07780 -2.67464
										CHANNELS 3 Zrotation Xrotation Yrotation
										JOINT LeftHandRing2
										{
											OFFSET 0.00000 4.91015 0.00000
											CHANNELS 3 Zrotation Xrotation Yrotation
											JOINT LeftHandRing3
											{
												OFFSET 0.00000 3.11376 0.00000
												CHANNELS 3 Zrotation Xrotation Yrotation
												End site
												{
													OFFSET 0.00000 2.03592 0.00000
												}
											}
										}
									}
									JOINT LeftHandPinky1
									{
										OFFSET 0.00000 9.70055 -5.26943
										CHANNELS 3 Zrotation Xrotation Yrotation
										JOINT LeftHandPinky2
										{
											OFFSET 0.00000 3.95207 0.00000
											CHANNELS 3 Zrotation Xrotation Yrotation
											JOINT LeftHandPinky3
											{
												OFFSET 0.00000 2.15568 0.00000
												CHANNELS 3 Zrotation Xrotation Yrotation
												End site
												{
													OFFSET 0.00000 1.91616 0.00000
												}
											}
										}
									}
								}
							}
						}
					}
				}
			}
		}
	}
	JOINT RightUpLeg
	{
		OFFSET -10.06560 0.00000 0.00000
		CHANNELS 3 Zrotation Xrotation Yrotation
		JOINT RightLeg
		{
			OFFSET 0.00000 -42.98740 0.00000
			CHANNELS 3 Zrotation Xrotation Yrotation
			JOINT RightFoot
			{
				OFFSET 0.00000 -44.62500 0.00000
				CHANNELS 3 Zrotation Xrotation Yrotation
				JOINT RightForeFoot
				{
					OFFSET 0.00000 -3.74821 0.00000
					CHANNELS 3 Zrotation Xrotation Yrotation
					JOINT RightToeBase
					{
						OFFSET 0.00000 0.00000 14.67920
						CHANNELS 3 Zrotation Xrotation Yrotation
						End site
						{
							OFFSET 0.00000 0.00000 10.36040
						}
					}
				}
			}
		}
	}
	JOINT LeftUpLeg
	{
		OFFSET 10.06560 0.00000 0.00000
		CHANNELS 3 Zrotation Xrotation Yrotation
		JOINT LeftLeg
		{
			OFFSET 0.00000 -42.98740 0.00000
			CHANNELS 3 Zrotation Xrotation Yrotation
			JOINT LeftFoot
			{
				OFFSET 0.00000 -44.62500 0.00000
				CHANNELS 3 Zrotation Xrotation Yrotation
				JOINT LeftForeFoot
				{
					OFFSET 0.00000 -3.74821 0.00000
					CHANNELS 3 Zrotation Xrotation Yrotation
					JOINT LeftToeBase
					{
						OFFSET 0.00000 0.00000 14.67920
						CHANNELS 3 Zrotation Xrotation Yrotation
						End site
						{
							OFFSET 0.00000 0.00000 10.67280
						}
					}
				}
			}
		}
	}
}
MOTION
Frames: 3
Frame Time: 0.016667
-1.964187745107096461e+01 9.337249893888099450e+01 -6.082306969857982182e+01 -8.160481402757330471e+00 8.449310759660274783e+00 -1.756981037805993537e+02 -8.926302056072593416e+00 9.440412446393892765e+00 -2.970605543271699622e-02 -2.053116662820724692e+00 6.025936956134720468e+00 8.956512903815342375e-01 -1.954367075426216793e+00 2.416370203983644771e+00 1.938579856396056345e+00 2.322150841604220251e+00 1.420987628670023373e+00 -7.490023130185601286e-01 1.361714480269902161e-01 7.883857083079047534e+00 -6.596815839460230535e-01 -2.544608127149599053e-01 -1.194093063843777003e+00 -7.228653615822326017e+00 1.834207234405003106e-01 -1.519944188321194289e+01 -5.165468723082483615e-01 9.821301209883890238e+01 -1.641147393955511546e+01 2.304895908926055892e+00 5.933404012299286734e+01 1.760534241998707472e+01 -2.085227042914236506e+01 -1.793511620855671822e+02 5.925784743174268243e+01 -1.296578782565689778e+02 1.480734019094826692e+01 -6.748937805894534847e+00 -6.360712334907646891e-04 -2.349431551976291388e+00 4.256014741238136168e+00 -2.960598426582325970e-01 -4.764550865008402479e-15 7.156741496611654009e-15 -2.146166942681835281e-17 -6.326737777483709173e-15 6.345012934654011520e-15 -3.129825191599976263e-15 4.384131623491570195e+01 -1.504346356220242732e-15 1.277191673199333561e-14 1.555395441159482376e-15 -2.282338346041585343e-15 3.194691900762621324e-15 1.314019791626643453e-17 4.841663043902901274e-15 6.327470023218910087e-15 5.827573637081587776e+01 1.746401083919288703e-15 1.629015024992056388e-14 -6.389610686580171995e-15 1.574784165103355335e-15 -9.785453121172429643e-17 -3.384132706744701216e-17 1.609720225004502634e-15 -6.197674212934327112e-15 5.573566483808622962e+01 2.522594209844572182e-15 1.640768841290055721e-14 -4.050401469511811296e-17 3.153174246354730893e-15 3.143280636225824720e-15 -1.222612389203546789e-17 -3.142661223981006525e-15 3.174600231206724778e-15 6.596769449607731417e+01 6.900543950640990494e-15 1.555460898788222630e-14 2.420208534859994942e-17 -8.076395848169151418e-17 -1.601575712520622271e-15 -6.285482244746622728e-15 -6.356284551539667146e-15 4.708275072848331895e-17 -1.002265204177150792e+02 -1.471386052391872212e+01 -2.530191550370950004e+00 -6.346705530745338564e+01 6.892556347641514591e+00 3.150841084997514230e+01 1.811631063444866072e+02 7.611799640611485529e+01 1.114769075174695558e+02 -9.767259564658965942e+00 8.006858993101092281e+00 -2.987944174078268917e-03 2.649318597422113797e+01 3.905503913841455699e+01 -1.672340953907628247e+01 -6.394914848441573263e-15 -3.133998204693156352e-15 3.216915946391828079e-15 -7.910965131664453251e-15 -1.273570575557150172e-14 1.200185164226869984e-17 -9.844898659378807793e+01 1.755200005913937289e-14 -1.606499294449155964e-14 -6.341973417267230578e-15 3.272979037617115831e-15 -8.346282258542642188e-16 -6.388042163621078995e-15 -3.931457086962561215e-15 -3.112196855875197530e-15 -1.188239699976594750e+02 2.269580801336561141e-14 -1.740170900463074791e-14 -2.204090637652884567e-17 -5.525925626088872834e-15 2.444386479290467450e-15 -3.152955007984610638e-15 -4.000769076989167889e-15 -3.328263922535125071e-17 -1.027665078248532211e+02 1.996491929487632508e-14 -1.509028059873466576e-14 -8.101684991021211628e-16 -4.658969646228591811e-15 -3.228286989287515813e-15 -4.414383875693565890e-17 -1.722758277440524549e-15 6.547118363155336411e-18 -8.218349530684955084e+01 1.262242952000374903e-14 -8.275988183828736538e-15 -1.732477250181931740e-17 -4.393970175691169804e-15 -3.162902148096886662e-15 3.169928895996455983e-15 1.933110028480201844e-15 -1.567460412324185938e-15 -1.339442676064964743e+01 -9.845122981347831370e-02 -7.885976977706869562e+00 -4.565415184391947712e-01 2.626783403087901902e+01 4.706518725485540067e-01 2.420351577941832755e+00 -1.588399195868895575e+01 -2.255350944098480692e+00 -3.945310580058336660e-16 1.885953683779119060e-17 2.057998657206401510e-16 -5.488450952249417445e-16 5.362413367244970530e+00 -1.138702078505154106e-15 -9.463872535910500261e+00 6.790690930035617967e+00 1.646541635640536327e+01 2.558448969349085278e-01 1.400588279052436214e+01 3.364837298293266166e-01 3.415858189333416117e+00 -7.023128267004700831e+00 -7.236355457214802556e+00 3.338046500886923924e-16 8.087884619970691793e-16 -1.228714146081403114e-15 7.031380493957731768e-17 -6.859468085532363091e-01 -1.927834445380131953e-15
2.386791926307302525e+00 9.183749638519414304e+01 -4.310061402300827638e+01 -7.936867660502437083e+00 8.012748849705191745e+00 -1.793932542339622387e+02 -1.110762275759616280e+00 8.456749104438983977e+00 -6.321906129533768626e-01 -1.559787961946665469e+00 6.973558968793375890e+00 5.717132548913370638e-01 -5.850305700519110585e-01 2.667923889733670784e+00 -9.630304542654892774e-01 4.917953508665577900e+00 8.341051905930921828e-01 -1.329680484443388266e+00 2.528839962193609736e+00 5.693191317698076404e+00 -2.397098981591102351e+00 8.460109947666045738e-01 -8.353869263071167950e+00 -7.527303141175922363e+00 1.979532857840387017e+00 -2.165518473553642664e+01 -7.842669809655282709e-01 1.001865536117856692e+02 -1.566409254108368643e+01 2.808346222398988346e+00 5.999565973724068613e+01 1.327476009884186858e+01 -2.887468362913003261e+01 6.104400781699776957e-01 4.485086115419944974e+01 -2.101257932515740379e+01 1.148888640626839930e+01 -6.974426764376742582e+00 -1.031424918926463754e-05 -7.614451359247009776e-02 5.444513622691667720e+00 2.067667521898846061e-01 -6.355731885157798305e-15 7.897074801280306730e-16 -7.938100230333150267e-15 3.210704165381223667e-15 -1.601632700020636268e-15 1.601441505927968609e-15 1.523868131729900322e+00 1.020918057914180558e-15 2.040608783340912377e-15 1.591017483033870715e-15 -2.424254161861978706e-15 1.624595918825744804e-15 1.580326383126622829e-15 2.366535636023694532e-15 -4.339321516390509536e-17 1.027215748641636672e+01 1.874012097792270867e-15 4.882895265119663680e-15 1.606795013320858000e-15 -2.380535074650052155e-15 -4.728496151819007661e-15 7.903692317483918702e-16 1.929761538510267383e-16 -1.642237377266586034e-15 1.873950543690667203e+01 1.884437585168892310e-15 7.780509929425632643e-15 3.851863313576916653e-18 8.749366126488003599e-16 -1.346994364113705727e-17 -4.329040740455990001e-16 -2.059705382850373891e-15 -1.579503684248522676e-15 4.314438542591113190e+01 5.352613147511803572e-15 1.056882878914208894e-14 1.401554506511444521e-18 -1.569237304283207186e-15 1.564235054115219186e-15 1.030657334177857206e-18 -1.622060027513437820e-15 3.215742066963840519e-15 -1.014058973595707727e+02 -1.110099848248403553e+01 -2.334656171228513877e+00 -6.470211682411030552e+01 3.255874662720813717e+00 3.684633742298336756e+01 2.125075467510230354e+00 4.914943743350853822e+01 1.022812628283271863e+01 -1.443241067534076549e+01 4.400675823260391528e-01 -4.736206567222361169e-05 4.443325107185295053e+00 1.302539567810938514e+01 -1.816060648367371577e+00 -3.196436356637261280e-15 6.394153039852886338e-15 -1.581716070730691397e-15 1.630448808799176717e-15 9.578073357186349338e-15 3.951239739463089371e-15 5.144730792946088371e-01 3.821787662233572634e-15 -2.282341324461329372e-16 -1.599547278305320908e-15 3.317365842935943531e-18 -3.206092166968807496e-15 1.581810408510131741e-15 -2.801589728267903516e-17 3.164966667367446165e-15 -1.288543831610111390e+01 4.664210865109788096e-15 -3.814657645500631616e-15 -1.544417332105826761e-15 -3.222305788472735372e-15 -1.980988054487765818e-17 -4.777939429124567719e-15 3.173808824834618870e-15 1.422219502103104313e-17 -2.049763968450147189e+01 5.778245832401143037e-15 -7.207918735324065654e-15 1.555343318153109718e-15 3.232287016643192192e-15 6.326000991737864187e-15 -3.127296465752951956e-15 -3.218827598411732621e-15 3.049016167758341585e-18 -4.055432472835649094e+01 8.673090919160804760e-15 -9.144083689488945339e-15 6.385062045125062940e-15 4.837749713477056121e-15 6.346960535727319496e-15 -1.445903692045320949e-17 -1.582770492915067241e-15 3.562842299035326362e-17 6.613922533390450553e-01 1.100272396102647754e+01 -1.887098021046763563e+01 -6.526163008690212264e-01 1.625685549099611649e+01 -7.926214389118082515e-01 -8.379422677672810238e+00 -1.304031005460780790e+01 -1.775730265845103872e+01 -1.203145238429013391e-17 8.246585674218285533e-16 1.373047184020987783e-16 -2.538282046178332308e-16 1.416188987729746529e+01 3.089478549205595106e-15 1.066123961636802342e+01 1.950022376239754607e+00 3.269840965947115308e+01 -3.101151687652392575e-02 3.553546422440063424e+01 -7.363034191603290424e-02 -6.750140384907021840e+00 -5.349487337132255327e+00 1.165336215227172545e+01 -2.279533454894864913e-16 -3.079224809617911564e-15 -1.260281725862605126e-15 3.497569096002148107e-16 -6.831931467524096746e+00 -1.093431003919907147e-15
-3.825408903582844466e+00 9.120112913472108573e+01 9.309784855383291813e+00 -7.375818111408469768e+00 8.316080725738904889e+00 1.520286975645422558e+02 -1.149169364093694057e+01 9.840537503886917392e+00 5.669940250713345620e-01 -2.763925868285419973e+00 6.871504437299954304e+00 1.187186828304210628e+00 -2.607586391642663592e+00 2.992600551657075503e+00 3.348255393616108577e+00 1.731833815516137243e-01 2.061644137761076134e+00 -3.522030225702653672e-01 -6.097945698954229776e+00 1.004883757845512093e+01 7.140587342106613278e+00 -1.921437967099118183e+00 -3.532360631548897789e+00 6.793947199429944739e+00 -3.074279278178141617e+00 -1.759716550425007497e+01 7.322238660385017583e-01 1.036571574464350078e+02 -1.633053819403552609e+01 3.666024044118192826e+00 7.074265551895007320e+01 -1.336310148477924287e+00 -4.111500870088987369e+01 -5.792607743780679996e-01 2.556039751131762472e+01 -1.976496322975858178e+01 2.043290479751263788e+01 -9.144264300889187069e+00 -1.938625410820387501e-03 -5.144112005499477114e+00 8.187669574671499362e+00 8.110549024963020770e-02 -7.138071576177719788e-18 1.578020158066283133e-15 3.470758630627395147e-18 1.017831799719852503e-17 -1.627826081084998088e-15 -6.358970447719741529e-15 7.945417121340386579e+00 -3.657354740175889253e-15 -4.674061842651575807e-15 6.400167112147492922e-15 5.495433666498463028e-17 -3.211203708916157890e-15 -1.636710723959961437e-17 6.324524159234336052e-15 3.191646976956964183e-15 1.536351314382615918e+01 -4.748083211421576900e-15 -5.887176579901423320e-15 -3.154102312574704431e-15 3.163716443808425910e-15 -6.394179583805054974e-15 1.552113123141660763e-15 6.404204413636334223e-18 4.614316072003623695e-17 1.812625371283387921e+01 -4.596829867900549466e-15 -5.415913357274724073e-15 -3.176955951576616810e-15 -3.157728601542961437e-15 -6.336793798888156834e-15 -4.807036444375076184e-15 3.141090217726806866e-15 -2.888955626646830275e-17 3.349694243365154733e+01 -5.599680005558687373e-15 -4.117508640155143276e-15 4.791228811753224205e-15 6.324869721409097877e-15 6.403898968885520956e-15 3.167175716075168806e-15 3.187806358908136724e-15 4.782849583269979995e-15 -1.028237367333509837e+02 -1.813575972472581910e+01 -3.668226984235718469e+00 -6.390682975117946540e+01 -2.822989087742680425e+00 1.717856286882821237e+01 -4.812866704230138737e-01 2.756501073789823408e+01 2.495785530430661936e+01 -6.418949958762585339e+00 -3.483467925029376300e+00 3.291643789774022569e-03 3.006946941486614122e+00 7.962049552415589204e+00 -2.522583081827356466e-02 -4.052427679171690217e-16 7.320029361353350505e-17 -1.927691905971009701e-18 1.414880115176101556e-17 -5.611970511430295405e-17 -3.175491347062469746e-15 5.138349376013968239e+00 2.307362268282565078e-16 4.718434223817998099e-16 -6.288420643644750194e-17 -2.123632446367249393e-16 1.396802665614902433e-17 6.059772118661939426e-17 -5.723573200907961006e-16 -3.177650467488482028e-15 -6.008159786568098681e+00 -5.321865087079481062e-16 1.605313697167664115e-15 7.615375116034962627e-16 -1.101110005379520299e-17 8.005407057816586636e-19 6.044392119045810616e-16 -7.561018634469337010e-16 -3.380604749671076834e-17 -1.339826437439861095e+01 -3.736957021515716977e-16 2.137667964895101868e-15 -3.996798478537617109e-16 7.875752926712675498e-16 3.174788213276403597e-15 2.149565146884821887e-18 -8.044786023082583482e-16 -1.037411860480320533e-17 -3.563319843053628233e+01 -1.541824599389807250e-15 1.956964673273974015e-15 1.197525014362101894e-15 -1.663660969849551329e-15 -3.167890043179978262e-15 3.904724586905817774e-16 -3.145791549124671165e-15 1.552284955975126098e-15 -1.815651522759475256e+01 3.139773186728976651e+00 -1.395040003918188987e+01 -8.770551146306514445e-01 3.829843333974384478e+01 -1.273860102487651247e+00 3.467794726765607738e+00 -1.829588585312166416e+01 -3.698127975316054972e+00 2.567078094611015885e-17 3.149788372682628940e-15 3.262066980679349188e-15 -1.633162256065263059e-15 -5.841725336972860561e-01 -1.468581411575988225e-16 -1.438446025712154608e+01 -3.887524115964290594e+00 2.219525439274957890e+01 -8.116187596507939972e-02 1.568298993217004877e+01 3.523264078307770664e-01 6.950629034225956460e+00 -4.150999127374909392e+00 -1.468550539203810512e+00 -1.797606002822718871e-16 7.952443907686283773e-16 3.571551776256172541e-15 -7.218381977591496230e-17 -2.220206210910029121e+00 2.814758501389356304e-15
